<?xml version="1.0" encoding="UTF-8"?>
<!-- Generator: visioncortex VTracer 0.6.2 -->
<svg version="1.1" xmlns="http://www.w3.org/2000/svg" width="1280" height="1280">
    <path
        d="M0 0 C6.1580641 3.55272929 7.83512619 8.43185455 10 15 C10.80475257 18.41361038 11.32004218 21.8415697 11.8125 25.3125 C13.29283069 34.91906309 15.01131305 44.45481585 16.86364746 53.99456787 C25.15916062 96.83366267 31.76436705 140.08343697 36.70776367 183.43798828 C36.85060791 184.67403809 36.99345215 185.91008789 37.140625 187.18359375 C37.31899902 188.76998657 37.31899902 188.76998657 37.50097656 190.38842773 C37.90566877 193.31729852 38.40667037 196.17853138 38.96386719 199.07983398 C40.15776993 205.53428929 40.81309806 212.00834699 41.4375 218.5390625 C41.56310303 219.81816498 41.68870605 221.09726746 41.81811523 222.41513062 C42.08306182 225.11600622 42.34498845 227.8171508 42.60449219 230.51855469 C42.92932998 233.89925535 43.25997881 237.27935343 43.59266853 240.65928936 C45.89281358 264.0474779 48.08779017 287.45393714 49.125 310.9375 C49.16669312 311.88046936 49.20838623 312.82343872 49.25134277 313.79498291 C50.19525743 336.3283285 50.2212307 358.87657446 50.2458725 381.42598343 C50.24992103 384.31857749 50.25741186 387.21114451 50.26568604 390.10372925 C50.31666499 410.58978571 50.07604105 431.03085195 49.1015625 451.49609375 C49.06219826 452.33733669 49.02283401 453.17857964 48.98227692 454.04531479 C48.06802942 473.0996795 46.18389752 492.05355417 44 511 C43.87304749 512.10785858 43.87304749 512.10785858 43.74353027 513.23809814 C42.04577654 527.98769305 40.12165904 542.63219634 37.00390625 557.15625 C35.81341229 562.7421454 34.88405087 568.36858711 33.9375 574 C32.77836455 580.83279846 31.49994233 587.54816425 29.69921875 594.24609375 C28.91519295 597.3340166 28.33264664 600.43033291 27.75 603.5625 C23.92318192 622.97418343 18.36323877 641.99620268 12.08886719 660.74414062 C11.34623869 662.96469975 10.61018248 665.18746506 9.87988281 667.41210938 C-0.21133865 698.12155048 -12.59056952 728.11018259 -28.1015625 756.50390625 C-29.33119701 758.76835664 -30.53609538 761.04648756 -31.7109375 763.33984375 C-36.09117744 771.84209988 -40.95215393 780.0287247 -45.9375 788.1875 C-46.59363281 789.26813721 -47.24976563 790.34877441 -47.92578125 791.4621582 C-51.964142 798.0120242 -56.25618718 804.19755406 -60.9362793 810.30053711 C-62.96758271 812.95759636 -64.92968378 815.65457206 -66.875 818.375 C-73.59679321 827.63909519 -80.73898263 836.58094078 -88.0625 845.375 C-88.76016479 846.22360596 -88.76016479 846.22360596 -89.47192383 847.08935547 C-90.6029565 848.43212822 -91.79628251 849.72197896 -93 851 C-93.66 851 -94.32 851 -95 851 C-95.24105469 851.55816406 -95.48210938 852.11632813 -95.73046875 852.69140625 C-97.26886579 855.48892209 -99.15561964 857.58486915 -101.3125 859.9375 C-102.52486328 861.26007813 -102.52486328 861.26007813 -103.76171875 862.609375 C-106.12262852 865.13097497 -108.52503992 867.59017045 -111 870 C-112.16802404 871.16530771 -113.33458445 872.33208356 -114.5 873.5 C-115.09941406 874.098125 -115.69882813 874.69625 -116.31640625 875.3125 C-117.69961053 876.69891357 -119.07032891 878.09777324 -120.4375 879.5 C-130.175 889 -130.175 889 -133 889 C-133.33 889.99 -133.66 890.98 -134 892 C-136.1171875 893.9453125 -136.1171875 893.9453125 -138.875 896.125 C-139.8753125 896.92292969 -140.875625 897.72085938 -141.90625 898.54296875 C-142.9271875 899.35378906 -143.948125 900.16460938 -145 901 C-146.79369528 902.47670603 -148.58540842 903.95582344 -150.375 905.4375 C-160.92301265 914.04599123 -171.74194105 922.05701594 -183.02978516 929.66503906 C-184.87729058 930.91685562 -186.711489 932.18583715 -188.54296875 933.4609375 C-205.43841505 945.11752228 -223.77119738 954.62102971 -242 964 C-243.15242187 964.59683594 -244.30484375 965.19367187 -245.4921875 965.80859375 C-250.68275285 968.45670661 -255.87539372 970.80854978 -261.3125 972.8984375 C-264.38384279 974.15733091 -267.32982039 975.60568195 -270.3125 977.0625 C-301.85082203 992.10168407 -337.10633854 1003.22746582 -371.12109375 1010.8828125 C-374.85525332 1011.72491407 -378.57026858 1012.63134348 -382.28515625 1013.5546875 C-426.70432219 1024.4678572 -472.35493655 1030.49196553 -518 1033 C-519.51631067 1033.08909353 -521.03258488 1033.1788092 -522.54882812 1033.26904297 C-540.76738901 1034.34516865 -558.98627025 1035.18969395 -577.23907471 1035.29754639 C-578.84209728 1035.30733675 -580.44510005 1035.32168719 -582.04803467 1035.34112549 C-597.06021163 1035.5021429 -611.38375962 1034.51273739 -623.14453125 1024.1015625 C-631.27706722 1015.7357798 -639 1001.928517 -639 990 C-639.66 990 -640.32 990 -641 990 C-641.10957031 989.45472656 -641.21914063 988.90945313 -641.33203125 988.34765625 C-642.33762369 983.56496052 -643.61658466 979.00857143 -645.20703125 974.390625 C-647.44132822 967.65471491 -648.99702377 961.02083361 -650 954 C-650.94978897 951.84971696 -650.94978897 951.84971696 -652 950 C-666.82409684 898.80735147 -663.86223511 838.91682511 -655 787 C-654.84273437 786.04480469 -654.68546875 785.08960938 -654.5234375 784.10546875 C-647.61492846 742.24458769 -635.13551106 697.6614936 -614.46923828 660.40405273 C-610.6440768 653.5024955 -607.33534258 646.37151691 -604.06860352 639.19091797 C-601.40492031 633.47190728 -598.38250633 628.38098267 -594.64746094 623.29296875 C-590.89059661 618.06409059 -587.75562528 612.43546601 -584.75 606.75 C-578.74351037 595.8343602 -570.5202933 585.88970077 -563 576 C-562.5978125 575.47019531 -562.195625 574.94039062 -561.78125 574.39453125 C-553.76288098 563.8453645 -545.55319438 553.54158921 -536.5546875 543.80078125 C-535.21011172 542.32668211 -533.86999482 540.84763313 -532.57495117 539.32983398 C-527.42183134 533.29417467 -521.84864308 527.69676767 -516.23022461 522.09985352 C-514.56573723 520.4407268 -512.90666553 518.77631949 -511.24804688 517.11132812 C-506.19941585 512.05958416 -501.1237667 507.08746214 -495.68823242 502.44750977 C-493.17664443 500.29404553 -490.78587682 498.01497361 -488.375 495.75 C-481.90673966 489.74488605 -474.98687093 484.38189683 -468 479 C-467.20464844 478.35933594 -466.40929687 477.71867187 -465.58984375 477.05859375 C-462.80498706 474.84498971 -459.96913362 472.71148974 -457.11865234 470.58349609 C-455.03791272 469.02833624 -452.96524199 467.46301183 -450.89453125 465.89453125 C-449.53385417 464.8671875 -448.17317708 463.83984375 -446.8125 462.8125 C-446.12736328 462.29236328 -445.44222656 461.77222656 -444.73632812 461.23632812 C-441.24988238 458.6089104 -437.76925469 456.21145899 -434 454 C-431.31556464 452.15487544 -428.64894158 450.28881263 -425.9921875 448.40429688 C-422.67738207 446.07998688 -419.30991405 443.9787118 -415.77685547 442.00268555 C-412.72570844 440.28091297 -409.74536059 438.44147786 -406.75 436.625 C-400.58807613 432.90882739 -394.34413221 429.39693354 -388 426 C-386.27081985 425.041691 -384.54165354 424.08335701 -382.8125 423.125 C-376.99816776 419.95354605 -371.08315588 417.00006782 -365.1484375 414.0625 C-362.49680419 412.74963921 -359.85656732 411.41814418 -357.2265625 410.0625 C-341.61821062 402.0539097 -325.46288145 395.05577369 -309 389 C-307.75353304 388.52441451 -306.50746568 388.04778085 -305.26171875 387.5703125 C-281.70020619 378.62199762 -257.66741105 370.42662189 -233.15380859 364.53417969 C-230.07700907 363.77108318 -227.04092148 362.89463007 -224 362 C-224.66 361.67 -225.32 361.34 -226 361 C-226 361.66 -226 362.32 -226 363 C-227.27121704 363.07891479 -227.27121704 363.07891479 -228.56811523 363.15942383 C-237.11135596 363.7247465 -245.57383185 364.57674397 -254.0625 365.6875 C-254.71351685 365.77236664 -255.36453369 365.85723328 -256.03527832 365.94467163 C-285.2449934 369.77517402 -314.17101378 374.96637027 -343 381 C-344.08941895 381.2254248 -345.17883789 381.45084961 -346.30126953 381.68310547 C-361.23087095 384.78024222 -376.01761294 388.40102546 -390.78857422 392.17871094 C-393.68196963 392.91866701 -396.57712988 393.6512544 -399.47265625 394.3828125 C-401.08614237 394.79607597 -402.69943962 395.21007789 -404.3125 395.625 C-404.98506836 395.79451172 -405.65763672 395.96402344 -406.35058594 396.13867188 C-413.0068941 397.87622345 -419.49695954 400.12729509 -426.01034546 402.32946777 C-429.21648441 403.40996665 -432.42878215 404.47176102 -435.640625 405.53515625 C-437.54208785 406.1664604 -439.44340733 406.79819511 -441.34472656 407.42993164 C-442.62189479 407.85396328 -443.89924067 408.2774602 -445.17675781 408.70043945 C-457.30872618 412.71826916 -469.25536049 416.95630743 -481 422 C-481.79954102 422.34305176 -482.59908203 422.68610352 -483.42285156 423.03955078 C-490.29578261 425.99493619 -497.15024601 428.9913542 -504 432 C-505.40644775 432.61367432 -505.40644775 432.61367432 -506.84130859 433.23974609 C-543.07699208 449.09485791 -585.01508818 470.53278888 -613 499 C-614.12203906 499.9586741 -615.26208322 500.89703416 -616.42578125 501.8046875 C-617.04904297 502.29743164 -617.67230469 502.79017578 -618.31445312 503.29785156 C-618.97380859 503.81831055 -619.63316406 504.33876953 -620.3125 504.875 C-635.06605095 516.72543286 -648.29652187 529.99699406 -661 544 C-661.55171875 544.6069873 -662.1034375 545.21397461 -662.671875 545.83935547 C-675.93921952 560.5557633 -686.55820813 577.19982956 -697.46240234 593.68847656 C-698.79054833 595.6851241 -700.13257865 597.67045443 -701.48828125 599.6484375 C-704.9228369 604.68061131 -707.99326416 609.64979061 -710.609375 615.15234375 C-712.013317 618.02726992 -713.5177311 620.82781262 -715.04516602 623.63818359 C-724.60127576 641.30442622 -732.20592406 659.60918849 -739.06738281 678.46679688 C-740.22245636 681.60424272 -741.44993101 684.70675361 -742.6875 687.8125 C-748.83268856 703.8068264 -753.11820018 720.33417115 -757 737 C-757.2798877 738.18770996 -757.55977539 739.37541992 -757.84814453 740.59912109 C-771.21145114 797.99941017 -775.41866143 857.48762955 -773.5625 916.3125 C-773.54043488 917.04043762 -773.51836975 917.76837524 -773.49563599 918.51837158 C-773.25874743 926.31314825 -772.9826765 934.09455251 -772.4375 941.875 C-771.93742777 949.41577168 -771.89115202 956.94379317 -771.875 964.5 C-771.86811157 966.32120361 -771.86811157 966.32120361 -771.86108398 968.17919922 C-771.86309814 969.30600098 -771.8651123 970.43280273 -771.8671875 971.59375 C-771.86831543 972.61146484 -771.86944336 973.62917969 -771.87060547 974.67773438 C-772 977 -772 977 -773 978 C-777.27047574 977.83575093 -779.43977659 977.47109696 -782.75 974.6875 C-783.4925 973.800625 -784.235 972.91375 -785 972 C-785.73863281 971.1503064 -785.73863281 971.1503064 -786.4921875 970.28344727 C-788.46063024 967.30241668 -789.3874979 964.1736522 -790.375 960.77734375 C-790.58560059 960.07662247 -790.79620117 959.37590118 -791.01318359 958.65394592 C-791.68317664 956.41735058 -792.34158049 954.1775262 -793 951.9375 C-793.44198338 950.4587675 -793.88468514 948.98024951 -794.328125 947.50195312 C-796.4500524 940.39870802 -798.51125944 933.29372839 -800.32421875 926.10375977 C-800.97950252 923.73428939 -800.97950252 923.73428939 -803 921 C-803.33333333 919 -803.66666667 917 -804 915 C-804.64666144 912.82721755 -805.3755231 910.69296726 -806.1171875 908.55078125 C-807.09264111 905.73232459 -808.01294729 902.89803763 -808.9375 900.0625 C-810.12745495 896.47467358 -811.39677687 892.97781126 -812.875 889.5 C-825.76589031 857.74928574 -832.15499831 822.28675819 -836.9375 788.5 C-837.05136047 787.70925079 -837.16522095 786.91850159 -837.28253174 786.10379028 C-837.6034896 783.8517056 -837.91164805 781.5982874 -838.21484375 779.34375 C-838.39136475 778.04630859 -838.56788574 776.74886719 -838.74975586 775.41210938 C-838.97767171 772.3044489 -838.80386015 769.98811509 -838 767 C-838.66 767 -839.32 767 -840 767 C-840 764.36 -840 761.72 -840 759 C-840.33 759 -840.66 759 -841 759 C-840.98259766 757.86111328 -840.98259766 757.86111328 -840.96484375 756.69921875 C-840.95582031 755.70535156 -840.94679688 754.71148438 -840.9375 753.6875 C-840.92589844 752.70136719 -840.91429687 751.71523438 -840.90234375 750.69921875 C-840.87670138 747.90036151 -840.87670138 747.90036151 -842 745 C-842.04457673 742.81295424 -842.0390999 740.62465053 -842 738.4375 C-841.76037998 734.05775867 -841.76037998 734.05775867 -843 730 C-843.09626362 728.10620246 -843.12796102 726.20898615 -843.12939453 724.31274414 C-843.13254669 723.12133316 -843.13569885 721.92992218 -843.13894653 720.70240784 C-843.1369223 719.40971481 -843.13489807 718.11702179 -843.1328125 716.78515625 C-843.13348596 715.4499866 -843.13445635 714.11481706 -843.13571167 712.77964783 C-843.13718715 709.97947016 -843.13503923 707.17932436 -843.13037109 704.37915039 C-843.1246794 700.79002622 -843.12795019 697.20097692 -843.13394356 693.61185551 C-843.13755791 690.85378964 -843.13640646 688.0957415 -843.13381577 685.33767509 C-843.13282408 683.37062913 -843.1358615 681.40358249 -843.13894653 679.4365387 C-843.13579437 678.24197556 -843.13264221 677.04741241 -843.12939453 675.81665039 C-843.12859894 674.76345108 -843.12780334 673.71025177 -843.12698364 672.62513733 C-843 670 -843 670 -842 667 C-841.95451202 665.20891087 -841.96158167 663.41625472 -842 661.625 C-842.05608589 655.0629512 -841.81830983 648.51617086 -841 642 C-840.67 641.67 -840.34 641.34 -840 641 C-840.0309375 639.5459375 -840.0309375 639.5459375 -840.0625 638.0625 C-840.10399953 635.09547081 -839.75834942 632.46093737 -839.12890625 629.5625 C-838.31873815 625.6660789 -837.61728226 621.77026732 -836.9921875 617.83984375 C-828.12805212 562.67987086 -828.12805212 562.67987086 -818.03515625 540.62890625 C-816.35473296 536.93384476 -815.08418479 533.25434624 -813.92333984 529.36962891 C-804.92073754 499.61384785 -788.75124627 471.67704169 -772.05957031 445.66357422 C-771.08341407 444.13096393 -770.13041968 442.58366639 -769.1796875 441.03515625 C-763.70575936 432.16230063 -757.42297673 423.85029676 -750.5625 416 C-748.03698889 413.23102905 -748.03698889 413.23102905 -746.66796875 410.67578125 C-744.69257955 407.50683136 -742.30469978 404.88647346 -739.75 402.1875 C-738.82708611 401.20279558 -737.90522986 400.21709895 -736.984375 399.23046875 C-736.4987207 398.710896 -736.01306641 398.19132324 -735.51269531 397.65600586 C-733.93791645 395.93203474 -732.42330552 394.16552456 -730.90625 392.390625 C-726.30166429 387.10567336 -721.34931177 382.16327158 -716.39501953 377.2097168 C-714.76172552 375.57424118 -713.1366153 373.93092292 -711.51171875 372.28710938 C-705.72763766 366.47284751 -699.85649158 361.03110368 -693.40966797 355.94824219 C-690.95353037 353.96242881 -688.66362202 351.8629755 -686.375 349.6875 C-680.66798695 344.47357288 -674.35329068 340.20076675 -668.01171875 335.80859375 C-664.17712498 333.14729117 -660.48321203 330.34483952 -656.859375 327.40234375 C-654.6656202 325.74781019 -652.35995618 324.41005738 -650 323 C-647.1082772 321.108319 -644.24321815 319.17707474 -641.375 317.25 C-634.6378153 312.74283286 -627.86928158 308.3039897 -621 304 C-619.75635598 303.21248341 -618.51287888 302.42470319 -617.26953125 301.63671875 C-608.64333441 296.18573209 -599.92693439 290.94780975 -591 286 C-589.76540039 285.31502441 -589.76540039 285.31502441 -588.50585938 284.61621094 C-578.72180304 279.20217832 -568.91937689 273.85468369 -558.88037109 268.92651367 C-554.72350125 266.88157657 -550.62977706 264.74308916 -546.55053711 262.54760742 C-535.58952649 256.66288358 -524.35509837 251.4458991 -513.05078125 246.2578125 C-505.55560209 242.81333301 -498.12358744 239.24220913 -490.72167969 235.60180664 C-485.43011762 233.03401803 -480.11105524 230.87838976 -474.56469727 228.92260742 C-471.05600625 227.66041386 -467.65450577 226.20473511 -464.25 224.6875 C-463.5679248 224.38755127 -462.88584961 224.08760254 -462.18310547 223.77856445 C-457.78689994 221.83344416 -453.45422612 219.77815134 -449.125 217.6875 C-441.01829992 213.80104931 -432.60256649 210.6947808 -424.18603516 207.55151367 C-418.89224784 205.56186223 -413.78117875 203.4944182 -408.76489258 200.88256836 C-405.94979391 199.47482432 -403.02115087 198.44076816 -400.0625 197.375 C-392.90583426 194.75319969 -385.82285059 191.96466947 -378.75 189.125 C-377.14342529 188.48038818 -377.14342529 188.48038818 -375.50439453 187.82275391 C-371.39563619 186.17242848 -367.28813295 184.51900177 -363.18115234 182.86425781 C-354.06616269 179.19291938 -344.94506803 175.56557083 -335.73095703 172.1496582 C-330.59438945 170.24020919 -325.50480908 168.22647164 -320.42358398 166.17480469 C-316.54877585 164.61204521 -312.65810736 163.10227446 -308.75 161.625 C-303.25174519 159.5301039 -297.84711618 157.24834231 -292.4375 154.9375 C-286.33202114 152.33488999 -280.24574279 149.98881598 -273.91796875 147.97265625 C-263.25142537 144.41714179 -252.95704966 139.71076599 -242.64355469 135.25830078 C-236.74435036 132.7206723 -230.82310387 130.31500834 -224.80859375 128.0625 C-221.17931377 126.68953177 -217.60044889 125.20251424 -214.0234375 123.69921875 C-212 123 -212 123 -209 123 C-209 122.34 -209 121.68 -209 121 C-207.90558594 120.5978125 -207.90558594 120.5978125 -206.7890625 120.1875 C-191.32662942 114.38431524 -176.36666244 107.34755454 -161.4296875 100.3203125 C-160.18239607 99.73415279 -158.93499857 99.14821874 -157.6875 98.5625 C-157.06190186 98.26835205 -156.43630371 97.9742041 -155.79174805 97.67114258 C-151.92892291 95.86619008 -148.03881764 94.14648011 -144.11621094 92.47583008 C-121.10638286 82.64389643 -98.47358927 69.86059166 -77.75 55.875 C-76.79609375 55.23304688 -75.8421875 54.59109375 -74.859375 53.9296875 C-73.91578125 53.29289062 -72.9721875 52.65609375 -72 52 C-71.00226562 51.34 -70.00453125 50.68 -68.9765625 50 C-64.218439 46.80294064 -59.61762863 43.39550946 -55 40 C-54.29488281 39.48179687 -53.58976562 38.96359375 -52.86328125 38.4296875 C-48.37030993 35.09413475 -43.98211005 31.63688736 -39.62890625 28.12109375 C-37.87504628 26.70601803 -36.11193763 25.30232986 -34.33984375 23.91015625 C-26.18613662 17.42238641 -19.01646179 10.17515478 -11.77734375 2.70703125 C-8.3266681 -0.60713415 -4.58093233 -0.7179073 0 0 Z M-223 360 C-223 360.66 -223 361.32 -223 362 C-222.34 362 -221.68 362 -221 362 C-221 361.34 -221 360.68 -221 360 C-221.66 360 -222.32 360 -223 360 Z M-808 515 C-807 517 -807 517 -807 517 Z M-839 634 C-838 638 -838 638 -838 638 Z M-841 655 C-840 657 -840 657 -840 657 Z M-644 740 C-643 742 -643 742 -643 742 Z M-646 747 C-645 749 -645 749 -645 749 Z M-649 760 C-648 762 -648 762 -648 762 Z M-652 774 C-651 776 -651 776 -651 776 Z M-656 798 C-655 800 -655 800 -655 800 Z M-657 805 C-656 807 -656 807 -656 807 Z M-658 814 C-657 816 -657 816 -657 816 Z M-658 907 C-657 909 -657 909 -657 909 Z "
        fill="#A0D824" transform="translate(1170,210)" />
    <path
        d="M0 0 C38.03708493 -2.31661796 38.03708493 -2.31661796 48.70019531 6.95361328 C49.89464297 8.06578537 51.07232359 9.19627238 52.23144531 10.34521484 C55.26220677 13.18101015 58.72786022 15.35147562 62.1875 17.625 C63.51926964 18.5330321 64.84874302 19.4444421 66.17578125 20.359375 C67.13798584 21.02163086 67.13798584 21.02163086 68.11962891 21.69726562 C73.46073356 25.39762066 78.73004209 29.19936627 84 33 C84.68288086 33.49226074 85.36576172 33.98452148 86.06933594 34.49169922 C89.82834374 37.20240844 93.58505184 39.9162669 97.33984375 42.6328125 C100.45245185 44.88404113 103.56988747 47.12833198 106.69140625 49.3671875 C114.41113845 54.90993411 122.04436136 60.52122761 129.546875 66.35546875 C133.70347465 69.56413687 137.95029051 72.64912532 142.1875 75.75 C155.1478475 85.25684173 167.7955936 95.13611423 180.23632812 105.31225586 C184.5111312 108.8060853 188.83099893 112.23378072 193.1875 115.625 C198.89030811 120.07143463 204.4232167 124.6914141 209.921875 129.38671875 C212.7270732 131.77882269 215.57463157 134.11455851 218.4375 136.4375 C227.76470898 144.03795163 236.86243408 151.90452081 245.7734375 159.98828125 C247.83104391 161.84734669 249.90846763 163.67928358 252 165.5 C255.85527125 168.85981471 259.65779851 172.27583017 263.453125 175.703125 C265.0636464 177.15555841 266.67777857 178.60400676 268.296875 180.046875 C280.2374878 190.70527435 291.84733487 201.68391375 303.06469727 213.1015625 C306.2968735 216.37521234 309.5563319 219.51975712 313.0625 222.5 C316.43186898 225.39739511 319.28668987 228.52064522 322.16015625 231.90234375 C325.57382526 235.79436128 329.31022908 239.37213798 333 243 C338.02879437 247.94441863 342.92555099 252.91251989 347.49829102 258.28564453 C348.91315345 259.90085572 350.38806205 261.39002083 351.9375 262.875 C354 265 354 265 354 267 C354.66 267 355.32 267 356 267 C356 267.99 356 268.98 356 270 C356.55171875 270.2165625 357.1034375 270.433125 357.671875 270.65625 C360.80556389 272.46495634 362.83396506 274.81551674 365.25 277.5 C365.70890625 277.99886719 366.1678125 278.49773437 366.640625 279.01171875 C370 282.74102493 370 282.74102493 370 285 C370.804375 285.639375 371.60875 286.27875 372.4375 286.9375 C376.84925653 290.48742502 380.14903755 294.9020689 383.65478516 299.31787109 C385.09273722 301.1159636 386.54986299 302.89707461 388.01171875 304.67578125 C395.38433453 313.65647635 402.52831875 322.79087841 409.53369141 332.06054688 C410.88707856 333.85064137 412.24554516 335.63674477 413.60546875 337.421875 C426 353.7818258 426 353.7818258 426 357 C426.66 357 427.32 357 428 357 C430.8394052 360.67452438 432 362.26886581 432 367 C432.99 367 433.98 367 435 367 C436.19519103 369.39038206 436.26991328 371.08241396 436.375 373.75 C436.42398438 374.59046875 436.47296875 375.4309375 436.5234375 376.296875 C435.77816381 380.14560183 433.88104674 382.47055796 431 385 C427.55170269 386.95525661 423.93902433 388.39684502 420.2578125 389.85546875 C419.2160788 390.28378494 418.17434509 390.71210114 417.1010437 391.15339661 C413.78191952 392.51397879 410.45391233 393.85107007 407.125 395.1875 C404.89389603 396.09675016 402.66341965 397.0075419 400.43359375 397.91992188 C396.33342052 399.59583974 392.22957771 401.26205769 388.12158203 402.91870117 C384.05754485 404.56185293 380.02155895 406.25565486 376 408 C374.80503906 408.50917969 373.61007812 409.01835937 372.37890625 409.54296875 C365.06728369 412.68226039 357.89865066 415.99914279 350.81079102 419.61401367 C344.28528681 422.91397765 337.64525067 425.95014471 331 429 C316.22261213 435.79755786 301.68891003 443.05799378 287.17431641 450.39697266 C286.12679199 450.92597168 285.07926758 451.4549707 284 452 C282.91509277 452.58442871 281.83018555 453.16885742 280.71240234 453.77099609 C279.81730957 454.17656738 278.9222168 454.58213867 278 455 C277.34 454.67 276.68 454.34 276 454 C275.62113647 454.92111572 275.62113647 454.92111572 275.23461914 455.86083984 C273.80053102 458.34560949 272.78968211 458.97095506 270.24609375 460.2265625 C269.48224365 460.61360352 268.71839355 461.00064453 267.93139648 461.39941406 C267.10841064 461.80385742 266.2854248 462.20830078 265.4375 462.625 C263.70658219 463.5043741 261.97744922 464.38726908 260.25 465.2734375 C259.3734375 465.72299805 258.496875 466.17255859 257.59375 466.63574219 C251.52408411 469.82825847 245.6640475 473.39451582 239.78759766 476.92626953 C238.23037489 477.86162404 236.66832864 478.7889389 235.10546875 479.71484375 C218.88700978 489.34375561 203.39000135 500.10899265 188 511 C186.33984375 512.16210938 186.33984375 512.16210938 184.6796875 513.32421875 C177.19037274 518.59084544 169.99839799 524.08739013 163 530 C161.96224615 530.87370572 160.92448548 531.74740333 159.88671875 532.62109375 C157.69520704 534.46927303 155.5083159 536.32275366 153.32421875 538.1796875 C151.12591307 540.04808592 148.92019564 541.90704144 146.70703125 543.7578125 C140.60647467 548.87007164 134.63211937 554.06731449 128.86889648 559.56054688 C126.56316622 561.72594225 125.04752577 562.98415808 122 564 C121.690625 564.61875 121.38125 565.2375 121.0625 565.875 C119.78193998 568.43612005 118.40833101 569.49479312 116 571 C115.34 571 114.68 571 114 571 C113.67 571.99 113.34 572.98 113 574 C112.34 574 111.68 574 111 574 C110.7525 574.57234375 110.505 575.1446875 110.25 575.734375 C108.80683801 578.35010611 107.11783778 580.14773456 105 582.25 C104.29875 582.95640625 103.5975 583.6628125 102.875 584.390625 C101 586 101 586 99 586 C98.74863281 586.57105469 98.49726563 587.14210938 98.23828125 587.73046875 C96.83025008 590.31111895 95.19123395 592.16006594 93.1875 594.3125 C83.82966624 604.54152855 74.82328969 615.00879602 66.33984375 625.9765625 C65.56769531 626.97429688 64.79554688 627.97203125 64 629 C63.27941406 629.95648437 62.55882812 630.91296875 61.81640625 631.8984375 C61.21699219 632.59195313 60.61757813 633.28546875 60 634 C59.34 634 58.68 634 58 634 C57.86851562 634.82177734 57.86851562 634.82177734 57.734375 635.66015625 C56.76870581 638.73694266 55.14942708 640.82752082 53.25 643.4375 C48.24318381 650.41492897 43.81400979 657.72169201 39.43066406 665.10327148 C38.89924805 665.98184814 38.36783203 666.8604248 37.8203125 667.765625 C37.34867676 668.55743164 36.87704102 669.34923828 36.39111328 670.16503906 C35 672 35 672 32 673 C32.33 673.99 32.66 674.98 33 676 C32.01 676 31.02 676 30 676 C30.33 676.99 30.66 677.98 31 679 C30.34 679.66 29.68 680.32 29 681 C28.29095491 682.31128841 27.63306512 683.65038866 27 685 C26.53464844 685.95648437 26.06929688 686.91296875 25.58984375 687.8984375 C21.08516216 697.37637276 17.04674736 707.01050677 13.11328125 716.73828125 C12.76088379 717.60404785 12.40848633 718.46981445 12.04541016 719.36181641 C11.32865665 721.17060632 10.64223291 722.99162397 9.98193359 724.82177734 C9.6514502 725.71977051 9.3209668 726.61776367 8.98046875 727.54296875 C8.69453857 728.35145264 8.4086084 729.15993652 8.11401367 729.99291992 C6.76460374 732.42410533 5.55474747 733.01766054 3 734 C0.85968231 730.50896544 0.74247999 727.71945291 0.734375 723.6640625 C0.73018555 722.38724609 0.72599609 721.11042969 0.72167969 719.79492188 C0.72984635 718.40493985 0.73932032 717.01496499 0.75 715.625 C0.75310181 714.91770752 0.75620361 714.21041504 0.75939941 713.48168945 C0.87440273 690.96378731 2.39562714 668.81873208 6.52392578 646.65771484 C7.10475396 643.41520431 7.57795423 640.16333272 8.04467773 636.90283203 C9.26482954 628.48892491 10.97312811 620.22310907 12.875 611.9375 C13.22377197 610.41406982 13.22377197 610.41406982 13.57958984 608.85986328 C17.05664023 594.07830162 21.31434569 579.57651104 26.17456055 565.19506836 C26.93813137 562.93563176 27.69522048 560.67410536 28.45117188 558.41210938 C31.86106991 548.23678252 35.40093816 538.10982304 39 528 C39.66 528 40.32 528 41 528 C41.103125 527.360625 41.20625 526.72125 41.3125 526.0625 C43.77594724 515.08896228 48.91683827 505.08224192 53.75 495 C54.63178542 493.15377715 55.51329175 491.30742099 56.39453125 489.4609375 C56.83104004 488.54666992 57.26754883 487.63240234 57.71728516 486.69042969 C59.6327949 482.67274462 61.53839158 478.65046058 63.4375 474.625 C63.75493164 473.9546875 64.07236328 473.284375 64.39941406 472.59375 C66.35995248 468.43260724 68.20981194 464.23732588 70 460 C70.66 460 71.32 460 72 460 C72.309375 458.63875 72.309375 458.63875 72.625 457.25 C74.57679977 450.3976382 77.76250047 442.91589868 83 438 C83.144375 437.401875 83.28875 436.80375 83.4375 436.1875 C84.25433467 433.01092075 86.18658909 430.72011636 88 428 C89.03842565 425.68351201 90.0421975 423.35096976 91 421 C92.43924777 417.67173953 92.82269891 417.11820073 96 415 C96 414.01 96 413.02 96 412 C97.88638659 409.86209519 99.44288177 408.27855912 102 407 C102.65555119 404.47266765 102.65555119 404.47266765 103 402 C97.76931571 407.52290129 93.22084851 413.33327212 88.86499023 419.54760742 C85.50973406 424.3251376 82.00517241 428.96405896 78.41650391 433.56811523 C76.19037295 436.429582 74.0481555 439.32135208 72 442.3125 C71.34 443.199375 70.68 444.08625 70 445 C69.34 445 68.68 445 68 445 C67.90589844 445.55300781 67.81179688 446.10601562 67.71484375 446.67578125 C66.81091234 449.61479321 65.34105548 451.68421089 63.5625 454.1875 C62.94503906 455.06792969 62.32757813 455.94835937 61.69140625 456.85546875 C60 459 60 459 58 460 C57.30593385 461.31927799 56.64476452 462.65593864 56 464 C54.93126158 465.683705 53.83737501 467.35156375 52.7265625 469.0078125 C52.07244385 469.98572754 51.4183252 470.96364258 50.74438477 471.97119141 C49.69528931 473.53232666 49.69528931 473.53232666 48.625 475.125 C47.54786743 476.7344751 47.54786743 476.7344751 46.44897461 478.37646484 C44.30120427 481.58557915 42.15077138 484.79289654 40 488 C19.70017368 518.30787991 1.4327334 549.3913765 -15.49023438 581.71459961 C-15.84265198 582.38450928 -16.19506958 583.05441895 -16.5581665 583.74462891 C-17.22156678 585.00576828 -17.88200941 586.26846941 -18.53900146 587.53295898 C-19.8522933 590.02474967 -20.99452259 591.99452259 -23 594 C-23.70666988 595.79257053 -23.70666988 595.79257053 -24.2890625 597.87890625 C-26.17308522 603.78852809 -28.78825453 609.3086109 -31.375 614.9375 C-42.27530057 639.08987256 -51.73266251 663.96483725 -58.984375 689.4609375 C-59.78337325 692.24513908 -60.61478393 695.01115983 -61.47265625 697.77734375 C-61.73240234 698.62103516 -61.99214844 699.46472656 -62.25976562 700.33398438 C-62.79416308 702.06720045 -63.33321627 703.79898799 -63.87695312 705.52929688 C-65.46783787 710.73041881 -66.40238566 715.59954012 -67 721 C-67.40830649 722.84538522 -67.81811173 724.69060338 -68.2565918 726.52905273 C-70.81249456 737.3862646 -72.2468502 748.38996292 -73.6875 759.4375 C-73.79582153 760.26219788 -73.90414307 761.08689575 -74.01574707 761.93658447 C-74.71469894 767.28684718 -75.3756649 772.64052984 -76 778 C-76.11778809 778.99080566 -76.23557617 779.98161133 -76.35693359 781.00244141 C-77.44721748 791.78196267 -77.24309474 802.67752275 -77.25 813.5 C-77.25100708 814.59303436 -77.25201416 815.68606873 -77.25305176 816.81222534 C-77.24250684 833.74379986 -76.56299282 850.2383584 -74 867 C-73.79117188 868.47654053 -73.79117188 868.47654053 -73.578125 869.98291016 C-70.30567785 893.05290505 -65.0504311 915.89820617 -57.64794922 937.99072266 C-56.2839938 942.22032067 -55.17883354 946.5256984 -54.0546875 950.82421875 C-52.99352958 954.01948316 -51.63423974 956.80187082 -50.09326172 959.78295898 C-48.48701465 963.04029029 -47.16184091 966.39723266 -45.80419922 969.76416016 C-37.60868674 990.08156522 -28.34676432 1010.23619937 -17 1029 C-16.47921875 1029.91910156 -15.9584375 1030.83820313 -15.421875 1031.78515625 C-12.24902954 1037.3838423 -8.85541744 1042.75060672 -5.28125 1048.09985352 C6.7974555 1066.28482505 13.18368976 1084.42756599 19.27577209 1105.24237061 C21.21336574 1111.81508648 23.4470713 1118.24346706 25.84375 1124.66015625 C26.71208794 1127.16836212 27.42201218 1129.56436348 28.046875 1132.1328125 C28.79342061 1135.16182954 29.6253576 1137.91703907 30.75 1140.8125 C32.70319353 1146.08760222 34.50860328 1151.40193836 36.25 1156.75 C36.52038086 1157.5541333 36.79076172 1158.3582666 37.06933594 1159.18676758 C38.61391883 1163.99097698 39.29680141 1167.95437599 39 1173 C34.52942231 1174.49019256 31.38319363 1174.63498925 27.05004883 1172.64575195 C25.51900513 1171.70155396 25.51900513 1171.70155396 23.95703125 1170.73828125 C23.39539276 1170.39622147 22.83375427 1170.05416168 22.25509644 1169.70173645 C20.43206681 1168.58564162 18.62218593 1167.45008156 16.8125 1166.3125 C15.5502322 1165.5311788 14.28761527 1164.75042139 13.0246582 1163.97021484 C2.80224053 1157.62453633 -7.21164331 1150.99830426 -17 1144 C-17.66773438 1143.52369141 -18.33546875 1143.04738281 -19.0234375 1142.55664062 C-48.98814444 1121.08982982 -48.98814444 1121.08982982 -58.60546875 1111.37890625 C-60.17094629 1109.74127408 -60.17094629 1109.74127408 -63.125 1107.9375 C-66 1106 -66 1106 -67 1104 C-68.10014828 1103.14915003 -69.23098562 1102.33776249 -70.375 1101.546875 C-75.57066481 1097.72898916 -80.04444139 1093.25716528 -84.57568359 1088.68505859 C-86.01826296 1087.2315993 -87.47144078 1085.78933758 -88.92578125 1084.34765625 C-89.83714844 1083.43371094 -90.74851563 1082.51976562 -91.6875 1081.578125 C-92.51636719 1080.74700195 -93.34523437 1079.91587891 -94.19921875 1079.05957031 C-96 1077 -96 1077 -96 1075 C-96.52980469 1074.79632812 -97.05960938 1074.59265625 -97.60546875 1074.3828125 C-101.04014336 1072.39932994 -103.55310105 1069.69879287 -106.3125 1066.875 C-107.18624268 1065.98941406 -107.18624268 1065.98941406 -108.07763672 1065.0859375 C-112.22238458 1060.85892039 -116.19255023 1056.53387111 -120 1052 C-120.7940625 1051.08347656 -121.588125 1050.16695312 -122.40625 1049.22265625 C-129.98956037 1040.43897962 -137.06119878 1031.29819863 -144 1022 C-144.53383301 1021.28714844 -145.06766602 1020.57429687 -145.61767578 1019.83984375 C-158.38793094 1002.71441487 -169.73673258 984.78401294 -179.90039062 966.00048828 C-180.9418089 964.10586543 -182.01473291 962.23537397 -183.109375 960.37109375 C-189.60519596 949.30553827 -194.9821803 937.79982962 -200 926 C-200.680625 924.4840625 -200.680625 924.4840625 -201.375 922.9375 C-203.40653899 918.21496958 -205.03214889 913.33903798 -206.73828125 908.4921875 C-207.79732626 905.56096076 -208.9260561 902.6881279 -210.125 899.8125 C-211.88555548 895.50339848 -213.14177993 891.14877061 -214.2890625 886.640625 C-215.07670241 883.71510533 -216.03655743 880.87221789 -217 878 C-223.56410256 856.12820513 -223.56410256 856.12820513 -222 853 C-222.66 853 -223.32 853 -224 853 C-227.58711366 839.65123278 -229.76409527 826.34383416 -231.25 812.625 C-231.33254028 811.87126099 -231.41508057 811.11752197 -231.50012207 810.34094238 C-233.2372942 794.28584222 -234.21170605 778.27625952 -234.1875 762.125 C-234.18689575 761.36721252 -234.1862915 760.60942505 -234.18566895 759.82867432 C-234.15563385 745.80997481 -233.48009825 731.94669756 -232 718 C-231.79866455 716.08670898 -231.79866455 716.08670898 -231.59326172 714.13476562 C-227.34723404 674.45033501 -218.92211022 635.92756523 -207.765625 597.63183594 C-207.02107796 595.07245548 -206.29022166 592.50952064 -205.5625 589.9453125 C-205.12564809 588.42168903 -204.68819193 586.89823862 -204.25 585.375 C-203.9701123 584.38935059 -203.9701123 584.38935059 -203.68457031 583.38378906 C-202.42589144 579.07897173 -200.80912804 575.09278146 -199 571 C-197.9986629 568.21850805 -197.10718816 565.56282591 -196.55419922 562.65917969 C-195.97383521 559.87445512 -195.16635361 557.27313393 -194.2578125 554.578125 C-193.91363281 553.55203125 -193.56945312 552.5259375 -193.21484375 551.46875 C-192.85519531 550.4065625 -192.49554688 549.344375 -192.125 548.25 C-191.77308594 547.20328125 -191.42117187 546.1565625 -191.05859375 545.078125 C-190.36300893 543.00947127 -189.66584712 540.94134708 -188.96704102 538.8737793 C-188.12405456 536.36865596 -187.29657754 533.85908733 -186.47265625 531.34765625 C-184.88352584 526.57703946 -183.11253912 521.88195567 -181.3125 517.1875 C-180.79357178 515.82878784 -180.79357178 515.82878784 -180.26416016 514.44262695 C-177.53546433 507.32742619 -174.71589458 500.25080045 -171.86499023 493.18383789 C-169.78978093 488.02472937 -167.79941965 482.84206093 -165.875 477.625 C-162.61204074 468.79957707 -158.91453812 460.18198622 -155 451.625 C-151.4702062 443.74521135 -148.67338673 435.52507537 -145.6796875 427.4296875 C-145.26976562 426.33914063 -144.85984375 425.24859375 -144.4375 424.125 C-144.08558594 423.17882812 -143.73367187 422.23265625 -143.37109375 421.2578125 C-142.25407709 418.60370453 -141.04932763 416.10715037 -139.734375 413.55078125 C-136.35995467 406.89065891 -133.61372454 399.97632566 -130.8125 393.0625 C-130.0128904 391.09109449 -129.21207932 389.12022573 -128.40715027 387.15098572 C-127.68464455 385.38329775 -126.96681753 383.61369957 -126.24926758 381.84399414 C-125 379 -125 379 -123 376 C-122.64587656 374.67203709 -122.31478446 373.33783393 -122 372 C-120.30985915 367.15492958 -120.30985915 367.15492958 -118 366 C-117.53451436 364.12105341 -117.07450155 362.24057177 -116.64306641 360.35351562 C-115.48486574 356.11469464 -113.5449091 352.22031665 -111.6875 348.25 C-110.86980451 346.47064398 -110.05339059 344.69069845 -109.23828125 342.91015625 C-108.84850098 342.0608252 -108.4587207 341.21149414 -108.05712891 340.33642578 C-106.76430187 337.47906903 -105.55672636 334.59241263 -104.375 331.6875 C-102.23717657 326.45094992 -99.86157221 321.34420495 -97.40966797 316.2487793 C-95.65544808 312.56531645 -94.20935476 308.89614783 -93 305 C-92.34 305 -91.68 305 -91 305 C-90.731875 303.845 -90.46375 302.69 -90.1875 301.5 C-89.11614878 297.18376486 -87.62527763 293.13707033 -86 289 C-85.34 289 -84.68 289 -84 289 C-83.90203125 288.16726563 -83.8040625 287.33453125 -83.703125 286.4765625 C-82.89846887 282.49798496 -81.43366438 279.03905465 -79.75 275.375 C-79.11358943 273.96008204 -78.47818161 272.54471265 -77.84375 271.12890625 C-77.53050781 270.43297363 -77.21726563 269.73704102 -76.89453125 269.02001953 C-75.21839672 265.23499304 -73.68346986 261.39159575 -72.140625 257.55078125 C-71 255 -71 255 -69.4453125 252.42578125 C-68.12291235 250.20629344 -67.34584628 248.33711131 -66.625 245.875 C-65.53806584 242.43961224 -64.23512026 239.25346368 -62.6875 236 C-59.20393948 228.55495146 -56.65079005 220.77018526 -54 213 C-53.34 213 -52.68 213 -52 213 C-51.85304687 211.51886719 -51.85304687 211.51886719 -51.703125 210.0078125 C-51.07651614 205.64565079 -49.50220696 201.89341308 -47.75 197.875 C-47.10699405 196.35592497 -46.46507406 194.83638983 -45.82421875 193.31640625 C-45.5101709 192.57664551 -45.19612305 191.83688477 -44.87255859 191.07470703 C-42.78081312 186.10110517 -40.89181977 181.05214298 -39 176 C-38.73670898 175.31099609 -38.47341797 174.62199219 -38.20214844 173.91210938 C-23.79917423 136.14286697 -10.03179281 95.5001369 -5.3984375 55.1953125 C-5 52 -5 52 -4 51 C-4 50.071875 -4 49.14375 -4 48.1875 C-4 45.43291348 -3.73147582 43.60080291 -3 41 C-1.23557683 31.51622546 -0.76225637 22.05774198 -0.4375 12.4375 C-0.37272461 10.63829102 -0.37272461 10.63829102 -0.30664062 8.80273438 C-0.20143198 5.86858207 -0.09929117 2.9343575 0 0 Z M-5 60 C-4 62 -4 62 -4 62 Z M-6 66 C-5 68 -5 68 -5 68 Z M-7 71 C-6 73 -6 73 -6 73 Z M-8 76 C-7 78 -7 78 -7 78 Z M-9 80 C-8 82 -8 82 -8 82 Z M-10 84 C-9 87 -9 87 -9 87 Z M-13 97 C-12 99 -12 99 -12 99 Z M-14 101 C-13 103 -13 103 -13 103 Z M-15 104 C-14 106 -14 106 -14 106 Z M-22 129 C-21 131 -21 131 -21 131 Z M-27 144 C-26 146 -26 146 -26 146 Z M-28 147 C-27 149 -27 149 -27 149 Z M-29 150 C-28 152 -28 152 -28 152 Z M-40 180 C-39 182 -39 182 -39 182 Z M-42 185 C-41 187 -41 187 -41 187 Z M-54 216 C-53 218 -53 218 -53 218 Z M-58 226 C-57 228 -57 228 -57 228 Z M-87 294 C-86 296 -86 296 -86 296 Z M-103 331 C-102 333 -102 333 -102 333 Z M-120 369 C-119 371 -119 371 -119 371 Z M104 399 C105 402 105 402 105 402 Z M-165 477 C-164 479 -164 479 -164 479 Z M-167 482 C-166 484 -166 484 -166 484 Z M-170 490 C-169 492 -169 492 -169 492 Z M-172 495 C-171 497 -171 497 -171 497 Z M-184 528 C-183 530 -183 530 -183 530 Z M39 531 C40 533 40 533 40 533 Z M38 534 C39 536 39 536 39 536 Z M36 539 C37 541 37 541 37 541 Z M29 559 C30 561 30 561 30 561 Z M28 562 C29 564 29 564 29 564 Z M27 565 C28 567 28 567 28 567 Z M23 578 C24 580 24 580 24 580 Z M-202 581 C-201 583 -201 583 -201 583 Z M22 581 C23 583 23 583 23 583 Z M-203 584 C-202 586 -202 586 -202 586 Z M-204 587 C-203 589 -203 589 -203 589 Z M-208 601 C-207 603 -207 603 -207 603 Z M-209 605 C-208 607 -208 607 -208 607 Z M15 607 C16 609 16 609 16 609 Z M-210 608 C-209 610 -209 610 -209 610 Z M-212 616 C-211 618 -211 618 -211 618 Z M-213 620 C-212 622 -212 622 -212 622 Z M11 625 C12 627 12 627 12 627 Z M-216 631 C-215 634 -215 634 -215 634 Z M-221 654 C-220 656 -220 656 -220 656 Z M-224 669 C-223 671 -223 671 -223 671 Z M-227 834 C-226 836 -226 836 -226 836 Z "
        fill="#006527" transform="translate(303,0)" />
    <path d="M0 0 C0.33 0 0.66 0 1 0 C1 2.97 1 5.94 1 9 C0.67 9 0.34 9 0 9 C0 6.03 0 3.06 0 0 Z "
        fill="#A1D924" transform="translate(326,913)" />
    <path d="M0 0 C0.33 0 0.66 0 1 0 C1 2.97 1 5.94 1 9 C0.67 9 0.34 9 0 9 C0 6.03 0 3.06 0 0 Z "
        fill="#006528" transform="translate(301,5)" />
    <path d="M0 0 C0.33 0 0.66 0 1 0 C1 2.64 1 5.28 1 8 C0.67 8 0.34 8 0 8 C0 5.36 0 2.72 0 0 Z "
        fill="#A1D924" transform="translate(326,900)" />
    <path d="M0 0 C0.33 0 0.66 0 1 0 C1 2.31 1 4.62 1 7 C0.67 7 0.34 7 0 7 C0 4.69 0 2.38 0 0 Z "
        fill="#006528" transform="translate(303,700)" />
    <path d="M0 0 C1 4 1 4 1 4 Z " fill="#006528" transform="translate(301,16)" />
    <path d="M0 0 C3 1 3 1 3 1 Z " fill="#000100" transform="translate(336,1174)" />
    <path d="" fill="#A1D924" transform="translate(0,0)" />
    <path d="" fill="#509F26" transform="translate(0,0)" />
    <path d="" fill="#006528" transform="translate(0,0)" />
    <path d="" fill="#006528" transform="translate(0,0)" />
    <path d="" fill="#006528" transform="translate(0,0)" />
    <path d="" fill="#006528" transform="translate(0,0)" />
    <path d="" fill="#006528" transform="translate(0,0)" />
    <path d="" fill="#006528" transform="translate(0,0)" />
    <path d="" fill="#006528" transform="translate(0,0)" />
    <path d="" fill="#006528" transform="translate(0,0)" />
    <path d="" fill="#006528" transform="translate(0,0)" />
    <path d="" fill="#A1D924" transform="translate(0,0)" />
    <path d="" fill="#A1D924" transform="translate(0,0)" />
    <path d="" fill="#A1D924" transform="translate(0,0)" />
    <path d="" fill="#006528" transform="translate(0,0)" />
    <path d="" fill="#006528" transform="translate(0,0)" />
    <path d="" fill="#006528" transform="translate(0,0)" />
    <path d="" fill="#006528" transform="translate(0,0)" />
    <path d="" fill="#006528" transform="translate(0,0)" />
    <path d="" fill="#006528" transform="translate(0,0)" />
    <path d="" fill="#006528" transform="translate(0,0)" />
    <path d="" fill="#006528" transform="translate(0,0)" />
    <path d="" fill="#006528" transform="translate(0,0)" />
</svg>