<svg xmlns="http://www.w3.org/2000/svg" xmlns:xlink="http://www.w3.org/1999/xlink" width="60" zoomAndPan="magnify" viewBox="0 0 45 44.999999" height="60" preserveAspectRatio="xMidYMid meet" version="1.0"><defs><clipPath id="344dd49518"><path d="M 0.0234375 4.050781 L 44.976562 4.050781 L 44.976562 40.800781 L 0.0234375 40.800781 Z M 0.0234375 4.050781 " clip-rule="nonzero"/></clipPath></defs><g clip-path="url(#344dd49518)"><path fill="#73c93d" d="M 44.976562 4.050781 C 44.097656 12.21875 34.457031 22.007812 27.515625 26.121094 C 20.742188 30.136719 12.773438 31.980469 5.6875 29.222656 C 4.917969 29.839844 3.277344 31.402344 0.753906 36.277344 C 3.363281 33.957031 9.558594 31.804688 14.628906 32.335938 C 21.476562 33.050781 27.761719 37.011719 32.855469 35.796875 C 27.703125 36.808594 20.5 31.710938 12.488281 31.230469 C 16.347656 31.300781 20.179688 30.359375 23.707031 28.839844 C 29.753906 30.953125 32.683594 35.558594 38.164062 34.445312 C 35.03125 38.316406 29.113281 40.234375 23.570312 40.699219 C 17.226562 41.234375 9.976562 39.71875 6.179688 34.589844 C 5.597656 34.535156 2.582031 35.308594 0.0234375 37.203125 C 2.589844 28.984375 7.386719 22.8125 15.476562 19.21875 C 24.234375 15.332031 34.378906 15.085938 39.476562 9.863281 C 31.09375 16.78125 12.359375 13.785156 3.675781 26.820312 C 3.160156 23.0625 3.734375 19.988281 5.09375 17.488281 C 8.742188 10.796875 17.417969 8.710938 24.464844 8.253906 C 32.027344 7.761719 38.597656 8.300781 44.976562 4.050781 " fill-opacity="1" fill-rule="nonzero"/></g></svg>