<svg xmlns="http://www.w3.org/2000/svg" xmlns:xlink="http://www.w3.org/1999/xlink" width="1960" zoomAndPan="magnify" viewBox="0 0 1470 1469.999934" height="1960" preserveAspectRatio="xMidYMid meet" version="1.0"><defs><clipPath id="283f225a1d"><path d="M 0 26.644531 L 1470 26.644531 L 1470 1443.394531 L 0 1443.394531 Z M 0 26.644531 " clip-rule="nonzero"/></clipPath></defs><g clip-path="url(#283f225a1d)"><path fill="#333333" d="M 735.152344 26.789062 C 329.34375 26.789062 0 355.238281 0 761.058594 C 0 1166.882812 182.433594 1323.128906 442.535156 1436.324219 C 508.765625 1407.726562 536.460938 1368.890625 557.835938 1360.761719 C 563.855469 1358.652344 554.824219 1393.273438 555.726562 1392.371094 C 559.941406 1388.15625 568.070312 1368.890625 573.1875 1358.652344 C 595.765625 1313.796875 606.90625 1287.304688 613.828125 1235.21875 C 627.074219 1145.507812 600.582031 1075.058594 586.433594 1050.675781 C 553.921875 992.570312 577.402344 932.359375 550.609375 870.042969 C 563.855469 872.148438 576.199219 870.042969 585.230469 864.921875 C 568.972656 867.933594 554.523438 862.816406 540.375 850.773438 C 526.226562 826.386719 502.746094 801.703125 464.8125 776.414062 C 406.710938 738.78125 325.128906 780.628906 281.175781 673.453125 C 434.105469 778.519531 463.609375 665.324219 587.035156 749.019531 C 600.28125 761.359375 609.613281 770.390625 615.636719 775.511719 C 608.410156 763.167969 601.488281 754.136719 593.058594 746.007812 C 659.289062 707.171875 715.28125 637.929688 720.398438 558.148438 C 723.410156 510.28125 712.269531 495.832031 669.523438 479.574219 C 620.453125 463.316406 588.84375 416.351562 592.15625 364.269531 C 615.636719 480.476562 783.917969 430.503906 772.480469 553.03125 C 874.535156 469.339844 909.152344 521.421875 1002.777344 530.453125 C 1029.269531 532.558594 1069.007812 537.675781 1089.480469 520.214844 C 993.746094 627.390625 898.917969 482.585938 813.121094 632.507812 C 794.757812 677.367188 774.285156 695.730469 750.804688 735.46875 C 671.328125 875.160156 728.226562 1024.179688 773.382812 1049.769531 C 773.382812 1049.769531 774.285156 1049.769531 775.492188 1050.675781 C 778.5 1051.578125 780.609375 1052.78125 782.714844 1052.78125 C 789.941406 1054.890625 801.078125 1056.996094 816.433594 1057.898438 C 808.304688 1055.792969 802.285156 1052.78125 795.960938 1049.769531 C 940.765625 973.304688 973.277344 1025.386719 1057.871094 916.101562 C 1004.886719 1073.253906 831.484375 1057.898438 836.601562 1127.140625 C 837.503906 1149.722656 839.613281 1157.847656 841.71875 1177.117188 C 849.847656 1237.328125 876.339844 1260.808594 843.828125 1321.925781 C 857.976562 1305.667969 867.308594 1285.195312 869.417969 1295.429688 C 888.683594 1388.15625 941.667969 1426.089844 1008.199219 1443.25 C 1278.535156 1335.171875 1470 1069.941406 1470 760.757812 C 1470 451.574219 1140.957031 26.789062 735.152344 26.789062 Z M 459.996094 805.316406 C 416.042969 836.023438 399.785156 882.988281 399.785156 882.988281 C 416.042969 855.589844 447.652344 818.863281 465.113281 810.433594 C 485.585938 866.429688 451.867188 924.832031 354.027344 921.523438 C 391.660156 875.761719 364.265625 793.875 459.996094 805.316406 Z M 262.210938 678.871094 C 229.695312 734.867188 159.253906 746.308594 93.925781 660.507812 C 158.046875 660.507812 206.214844 581.03125 263.113281 670.742188 C 208.023438 654.488281 157.144531 672.851562 157.144531 672.851562 C 191.765625 667.734375 243.847656 668.636719 262.210938 678.871094 Z M 281.476562 646.359375 C 295.625 578.921875 269.132812 520.820312 269.132812 520.820312 C 278.164062 560.558594 282.378906 622.875 272.144531 646.359375 C 205.914062 613.84375 185.445312 531.054688 278.164062 443.449219 C 283.28125 519.914062 379.015625 568.988281 281.175781 646.359375 Z M 410.023438 357.648438 C 472.339844 360.65625 521.109375 282.082031 575.296875 373 C 522.3125 355.539062 471.4375 372.097656 471.4375 372.097656 C 505.152344 367.882812 557.234375 371.195312 575.296875 381.128906 C 541.578125 435.320312 472.339844 445.253906 410.023438 357.648438 Z M 643.632812 671.949219 C 609.917969 636.121094 565.058594 627.992188 565.058594 627.992188 C 592.457031 639.132812 630.386719 661.710938 639.417969 677.066406 C 592.457031 702.65625 536.460938 680.078125 524.117188 592.46875 C 571.082031 619.867188 639.417969 584.339844 643.332031 671.949219 Z M 594.5625 343.496094 C 625.269531 267.03125 605.703125 192.367188 605.703125 192.367188 C 608.710938 241.441406 599.679688 315.800781 583.125 341.390625 C 511.777344 288.40625 504.550781 186.347656 632.191406 103.558594 C 623.160156 194.476562 724.914062 273.953125 594.5625 343.195312 Z M 624.066406 374.203125 C 636.40625 365.171875 671.027344 357.949219 693.304688 356.742188 C 693.304688 356.742188 657.480469 350.722656 622.859375 369.085938 C 650.257812 301.652344 692.101562 348.617188 733.945312 340.488281 C 700.230469 406.71875 652.363281 407.921875 623.765625 374.203125 Z M 906.445312 484.390625 C 912.464844 437.425781 890.1875 397.6875 890.1875 397.6875 C 899.21875 425.082031 905.542969 468.132812 900.425781 485.292969 C 850.449219 464.824219 831.183594 407.621094 891.394531 342.59375 C 900.425781 395.578125 972.074219 426.289062 906.746094 484.390625 Z M 749.300781 995.582031 C 754.417969 982.335938 780.007812 958.851562 799.273438 946.507812 C 799.273438 946.507812 766.761719 958.851562 745.085938 991.367188 C 736.957031 920.917969 794.15625 940.488281 825.765625 912.792969 C 827.871094 985.34375 788.132812 1009.730469 749.300781 995.28125 Z M 831.785156 630.402344 C 845.03125 627.390625 876.640625 635.519531 897.113281 643.648438 C 897.113281 643.648438 868.511719 624.382812 832.988281 625.285156 C 879.953125 581.332031 898.316406 636.421875 938.054688 645.757812 C 885.070312 686.699219 844.128906 669.238281 832.085938 630.402344 Z M 1044.925781 914.898438 C 1006.089844 859.804688 947.085938 841.441406 947.085938 841.441406 C 981.707031 860.707031 1028.667969 899.546875 1039.808594 922.125 C 971.46875 950.722656 899.21875 910.984375 897.113281 784.542969 C 956.117188 830.300781 1054.257812 791.765625 1044.925781 915.199219 Z M 1150.894531 739.382812 C 1185.511719 841.441406 1139.753906 894.425781 1077.4375 891.417969 C 1079.546875 870.945312 1106.039062 826.085938 1127.410156 799.59375 C 1127.410156 799.59375 1085.566406 832.109375 1070.214844 887.203125 C 1027.464844 791.164062 1118.078125 793.273438 1150.894531 739.382812 Z M 1075.332031 936.273438 C 1090.683594 936.273438 1127.410156 951.628906 1148.785156 965.777344 C 1148.785156 965.777344 1120.1875 937.175781 1077.4375 931.15625 C 1143.667969 887.203125 1151.796875 957.648438 1195.75 976.914062 C 1124.402344 1015.75 1080.449219 985.042969 1075.332031 935.972656 Z M 1094.597656 565.074219 C 1112.960938 564.171875 1153.601562 580.425781 1178.289062 595.78125 C 1178.289062 595.78125 1144.570312 565.074219 1097.609375 559.050781 C 1168.957031 509.980469 1181.296875 586.449219 1231.273438 608.125 C 1152.699219 650.875 1102.726562 618.359375 1094.597656 565.375 Z M 1101.824219 509.078125 C 1112.058594 482.585938 1160.828125 437.726562 1197.554688 413.042969 C 1197.554688 413.042969 1134.335938 437.425781 1094.597656 500.648438 C 1076.234375 364.871094 1188.523438 401.601562 1249.636719 346.507812 C 1255.65625 486.199219 1178.289062 535.269531 1101.824219 508.777344 Z M 1101.824219 509.078125 " fill-opacity="1" fill-rule="evenodd"/></g></svg>